<?xml version="1.0" encoding="UTF-8" standalone="no"?>
<!DOCTYPE svg PUBLIC "-//W3C//DTD SVG 1.1//EN"
 "http://www.w3.org/Graphics/SVG/1.1/DTD/svg11.dtd">
<!-- Generated by graphviz version 2.38.0 (20140413.2041)
 -->
<!-- Title: G Pages: 1 -->
<svg width="1236pt" height="1379pt"
 viewBox="0.00 0.00 1236.17 1379.00" xmlns="http://www.w3.org/2000/svg" xmlns:xlink="http://www.w3.org/1999/xlink">
<g id="graph0" class="graph" transform="scale(1 1) rotate(0) translate(4 1375)">
<title>G</title>
<polygon fill="#ffffff" stroke="none" points="-4,4 -4,-1375 1232.17,-1375 1232.17,4 -4,4"/>
<g id="clust3" class="cluster"><title>cluster_2</title>
<polygon fill="lightgrey" stroke="lightgrey" points="45.1961,-644 45.1961,-1033 361.304,-1033 361.304,-644 45.1961,-644"/>
<text text-anchor="middle" x="203.25" y="-1017.8" font-family="Times New Roman,serif" font-size="14.00">...</text>
</g>
<g id="clust4" class="cluster"><title>cluster_3</title>
<polygon fill="#dcdcdc" stroke="#dcdcdc" points="75.1961,-674 75.1961,-980 331.304,-980 331.304,-674 75.1961,-674"/>
<text text-anchor="middle" x="203.25" y="-964.8" font-family="Times New Roman,serif" font-size="14.00">...</text>
</g>
<g id="clust1" class="cluster"><title>cluster_0</title>
<polygon fill="lightgrey" stroke="lightgrey" points="8,-8 8,-318 385.216,-318 385.216,-8 8,-8"/>
<text text-anchor="start" x="79.6078" y="-303.8" font-family="Times New Roman,serif" font-weight="bold" text-decoration="underline" font-size="14.00">Intra&#45;network</text>
<text text-anchor="start" x="166.608" y="-303.8" font-family="Times New Roman,serif" font-size="14.00">, or </text>
<text text-anchor="start" x="190.608" y="-303.8" font-family="Times New Roman,serif" font-weight="bold" text-decoration="underline" font-size="14.00">Enterprise Network</text>
</g>
<g id="clust2" class="cluster"><title>cluster_1</title>
<polygon fill="#dcdcdc" stroke="#dcdcdc" points="38,-38 38,-265 355.216,-265 355.216,-38 38,-38"/>
<text text-anchor="start" x="136.608" y="-250.8" font-family="Times New Roman,serif" font-weight="bold" text-decoration="underline" font-size="14.00">Modbus Gateway 1</text>
</g>
<g id="clust8" class="cluster"><title>cluster_6</title>
<polygon fill="lightgrey" stroke="lightgrey" points="606.109,-251 606.109,-1363 1220.17,-1363 1220.17,-251 606.109,-251"/>
<text text-anchor="start" x="870.14" y="-1348.8" font-family="Times New Roman,serif" font-weight="bold" text-decoration="underline" font-size="14.00">Inter&#45;network</text>
</g>
<g id="clust10" class="cluster"><title>cluster_8</title>
<polygon fill="#dcdcdc" stroke="#dcdcdc" points="636.109,-281 636.109,-538 1150.38,-538 1150.38,-281 636.109,-281"/>
<text text-anchor="start" x="835.743" y="-523.8" font-family="Times New Roman,serif" font-weight="bold" text-decoration="underline" font-size="14.00">Federated Domain</text>
</g>
<g id="clust11" class="cluster"><title>cluster_9</title>
<polygon fill="#dcdcdc" stroke="#dcdcdc" points="837.289,-1053 837.289,-1310 1150.38,-1310 1150.38,-1053 837.289,-1053"/>
<text text-anchor="start" x="936.332" y="-1295.8" font-family="Times New Roman,serif" font-weight="bold" text-decoration="underline" font-size="14.00">Federated Domain</text>
</g>
<g id="clust9" class="cluster"><title>cluster_7</title>
<polygon fill="#dcdcdc" stroke="#dcdcdc" points="813.891,-568 813.891,-957 1190.17,-957 1190.17,-568 813.891,-568"/>
<text text-anchor="start" x="955.031" y="-942.8" font-family="Times New Roman,serif" font-weight="bold" text-decoration="underline" font-size="14.00">XMPP Domain</text>
</g>
<g id="clust5" class="cluster"><title>cluster_4</title>
<polygon fill="lightgrey" stroke="lightgrey" points="8,-326 8,-636 385.216,-636 385.216,-326 8,-326"/>
<text text-anchor="start" x="79.6078" y="-621.8" font-family="Times New Roman,serif" font-weight="bold" text-decoration="underline" font-size="14.00">Intra&#45;network</text>
<text text-anchor="start" x="166.608" y="-621.8" font-family="Times New Roman,serif" font-size="14.00">, or </text>
<text text-anchor="start" x="190.608" y="-621.8" font-family="Times New Roman,serif" font-weight="bold" text-decoration="underline" font-size="14.00">Enterprise Network</text>
</g>
<g id="clust6" class="cluster"><title>cluster_5</title>
<polygon fill="#dcdcdc" stroke="#dcdcdc" points="38,-356 38,-583 355.216,-583 355.216,-356 38,-356"/>
<text text-anchor="start" x="136.108" y="-568.8" font-family="Times New Roman,serif" font-weight="bold" text-decoration="underline" font-size="14.00">Modbus Gateway S</text>
</g>
<!-- Modbus1 -->
<g id="node1" class="node"><title>Modbus1</title>
<ellipse fill="white" stroke="black" cx="274.304" cy="-167" rx="50.8235" ry="25.4118"/>
<text text-anchor="start" x="250.304" y="-170.8" font-family="Times New Roman,serif" font-size="14.00" fill="#000000">Modbus</text>
<text text-anchor="start" x="246.304" y="-156.8" font-family="Times New Roman,serif" font-size="14.00" fill="#000000">Gateway</text>
<text text-anchor="start" x="295.304" y="-156.8" font-family="Times New Roman,serif" baseline-shift="sub" font-size="14.00" fill="#000000">1</text>
</g>
<!-- Bridge -->
<g id="node47" class="node"><title>Bridge</title>
<ellipse fill="white" stroke="black" cx="495.662" cy="-458" rx="34.394" ry="18"/>
<text text-anchor="middle" x="495.662" y="-454.3" font-family="Times New Roman,serif" font-size="14.00" fill="#000000">Bridge</text>
</g>
<!-- Modbus1&#45;&gt;Bridge -->
<g id="edge15" class="edge"><title>Modbus1&#45;&gt;Bridge</title>
<path fill="none" stroke="black" d="M299.443,-199.023C343.478,-257.439 435.966,-380.133 475.778,-432.947"/>
<polygon fill="black" stroke="black" points="302.069,-196.692 293.255,-190.814 296.479,-200.906 302.069,-196.692"/>
<polygon fill="black" stroke="black" points="473.105,-435.217 481.919,-441.095 478.695,-431.003 473.105,-435.217"/>
<text text-anchor="start" x="393.216" y="-405.8" font-family="Times New Roman,serif" font-weight="bold" font-size="14.00" fill="#000000">Modbus</text>
<text text-anchor="start" x="396.216" y="-391.8" font-family="Times New Roman,serif" font-size="14.00" fill="#000000">TCP/IP</text>
</g>
<!-- Modbus2 -->
<g id="node2" class="node"><title>Modbus2</title>
<ellipse fill="white" stroke="black" cx="274.304" cy="-798" rx="27" ry="18"/>
<text text-anchor="middle" x="274.304" y="-794.3" font-family="Times New Roman,serif" font-size="14.00" fill="#000000">...</text>
</g>
<!-- Modbus2&#45;&gt;Bridge -->
<g id="edge16" class="edge"><title>Modbus2&#45;&gt;Bridge</title>
<path fill="none" stroke="black" d="M291.373,-773.093C331.766,-710.485 437.228,-547.022 478.122,-483.637"/>
<polygon fill="black" stroke="black" points="288.364,-771.301 285.884,-781.601 294.246,-775.096 288.364,-771.301"/>
<polygon fill="black" stroke="black" points="481.191,-485.336 483.672,-475.035 475.309,-481.541 481.191,-485.336"/>
<text text-anchor="start" x="393.216" y="-625.8" font-family="Times New Roman,serif" font-weight="bold" font-size="14.00" fill="#000000">Modbus</text>
<text text-anchor="start" x="396.216" y="-611.8" font-family="Times New Roman,serif" font-size="14.00" fill="#000000">TCP/IP</text>
</g>
<!-- Modbus3 -->
<g id="node3" class="node"><title>Modbus3</title>
<ellipse fill="white" stroke="black" cx="274.304" cy="-458" rx="50.8235" ry="25.4118"/>
<text text-anchor="start" x="250.304" y="-461.8" font-family="Times New Roman,serif" font-size="14.00" fill="#000000">Modbus</text>
<text text-anchor="start" x="246.304" y="-447.8" font-family="Times New Roman,serif" font-size="14.00" fill="#000000">Gateway</text>
<text text-anchor="start" x="295.304" y="-447.8" font-family="Times New Roman,serif" baseline-shift="sub" font-size="14.00" fill="#000000">S</text>
</g>
<!-- Modbus3&#45;&gt;Bridge -->
<g id="edge17" class="edge"><title>Modbus3&#45;&gt;Bridge</title>
<path fill="none" stroke="black" d="M335.387,-458C371.936,-458 417.793,-458 450.905,-458"/>
<polygon fill="black" stroke="black" points="335.354,-454.5 325.354,-458 335.354,-461.5 335.354,-454.5"/>
<polygon fill="black" stroke="black" points="451.18,-461.5 461.18,-458 451.18,-454.5 451.18,-461.5"/>
<text text-anchor="start" x="393.216" y="-475.8" font-family="Times New Roman,serif" font-weight="bold" font-size="14.00" fill="#000000">Modbus</text>
<text text-anchor="start" x="396.216" y="-461.8" font-family="Times New Roman,serif" font-size="14.00" fill="#000000">TCP/IP</text>
</g>
<!-- XMPP -->
<g id="node4" class="node"><title>XMPP</title>
<ellipse fill="white" stroke="black" cx="705" cy="-458" rx="38.7821" ry="26.7407"/>
<text text-anchor="middle" x="705" y="-461.8" font-family="Times New Roman,serif" font-size="14.00" fill="#000000">XMPP</text>
<text text-anchor="middle" x="705" y="-446.8" font-family="Times New Roman,serif" font-size="14.00" fill="#000000">Broker</text>
</g>
<!-- XD1 -->
<g id="node11" class="node"><title>XD1</title>
<ellipse fill="white" stroke="black" cx="908.235" cy="-616" rx="36.2938" ry="18"/>
<text text-anchor="start" x="888.235" y="-613.3" font-family="Times New Roman,serif" font-size="14.00" fill="#000000">Thing</text>
<text text-anchor="start" x="921.235" y="-613.3" font-family="Times New Roman,serif" baseline-shift="sub" font-size="14.00" fill="#000000">1</text>
</g>
<!-- XMPP&#45;&gt;XD1 -->
<g id="edge21" class="edge"><title>XMPP&#45;&gt;XD1</title>
<path fill="none" stroke="black" d="M739.571,-484.358C778.887,-515.227 843.268,-565.776 879.751,-594.42"/>
<polygon fill="black" stroke="black" points="741.514,-481.433 731.487,-478.011 737.191,-486.939 741.514,-481.433"/>
<polygon fill="black" stroke="black" points="877.933,-597.443 887.96,-600.866 882.256,-591.938 877.933,-597.443"/>
<text text-anchor="middle" x="783.891" y="-536.8" font-family="Times New Roman,serif" font-size="14.00" fill="#000000">JID</text>
</g>
<!-- XD2 -->
<g id="node12" class="node"><title>XD2</title>
<text text-anchor="middle" x="908.235" y="-666.3" font-family="Times New Roman,serif" font-size="14.00" fill="#000000">...</text>
</g>
<!-- XMPP&#45;&gt;XD2 -->
<!-- XD3 -->
<g id="node13" class="node"><title>XD3</title>
<ellipse fill="white" stroke="black" cx="908.235" cy="-724" rx="38.9931" ry="18"/>
<text text-anchor="start" x="886.235" y="-721.3" font-family="Times New Roman,serif" font-size="14.00" fill="#000000">Thing</text>
<text text-anchor="start" x="919.235" y="-721.3" font-family="Times New Roman,serif" baseline-shift="sub" font-size="14.00" fill="#000000">M</text>
</g>
<!-- XMPP&#45;&gt;XD3 -->
<g id="edge23" class="edge"><title>XMPP&#45;&gt;XD3</title>
<path fill="none" stroke="black" d="M711.322,-494.94C721.192,-548.838 747.723,-647.941 813.891,-697 827.342,-706.973 844.395,-713.271 860.235,-717.245"/>
<polygon fill="black" stroke="black" points="714.719,-494.047 709.563,-484.791 707.822,-495.242 714.719,-494.047"/>
<polygon fill="black" stroke="black" points="859.894,-720.756 870.418,-719.536 861.43,-713.927 859.894,-720.756"/>
<text text-anchor="middle" x="783.891" y="-692.8" font-family="Times New Roman,serif" font-size="14.00" fill="#000000">JID</text>
</g>
<!-- XC1 -->
<g id="node14" class="node"><title>XC1</title>
<ellipse fill="white" stroke="black" cx="908.235" cy="-778" rx="63.0888" ry="18"/>
<text text-anchor="start" x="867.735" y="-775.3" font-family="Times New Roman,serif" font-size="14.00" fill="#000000">Concentrator</text>
<text text-anchor="start" x="941.735" y="-775.3" font-family="Times New Roman,serif" baseline-shift="sub" font-size="14.00" fill="#000000">1</text>
</g>
<!-- XMPP&#45;&gt;XC1 -->
<g id="edge24" class="edge"><title>XMPP&#45;&gt;XC1</title>
<path fill="none" stroke="black" d="M706.911,-495.221C709.735,-546.661 720.663,-640.741 761.891,-708 780.051,-737.627 814.749,-754.978 845.688,-764.994"/>
<polygon fill="black" stroke="black" points="710.393,-494.74 706.424,-484.917 703.4,-495.071 710.393,-494.74"/>
<polygon fill="black" stroke="black" points="844.99,-768.44 855.576,-767.994 847.023,-761.741 844.99,-768.44"/>
<text text-anchor="middle" x="783.891" y="-752.8" font-family="Times New Roman,serif" font-size="14.00" fill="#000000">JID</text>
</g>
<!-- XC2 -->
<g id="node15" class="node"><title>XC2</title>
<text text-anchor="middle" x="908.235" y="-828.3" font-family="Times New Roman,serif" font-size="14.00" fill="#000000">...</text>
</g>
<!-- XMPP&#45;&gt;XC2 -->
<!-- XC3 -->
<g id="node16" class="node"><title>XC3</title>
<ellipse fill="white" stroke="black" cx="908.235" cy="-886" rx="64.189" ry="18"/>
<text text-anchor="start" x="866.735" y="-883.3" font-family="Times New Roman,serif" font-size="14.00" fill="#000000">Concentrator</text>
<text text-anchor="start" x="940.735" y="-883.3" font-family="Times New Roman,serif" baseline-shift="sub" font-size="14.00" fill="#000000">C</text>
</g>
<!-- XMPP&#45;&gt;XC3 -->
<g id="edge26" class="edge"><title>XMPP&#45;&gt;XC3</title>
<path fill="none" stroke="black" d="M706.257,-495.254C707.969,-558.976 717.149,-691.808 761.891,-793 763.779,-797.269 810.019,-856.393 813.891,-859 822.891,-865.059 833.26,-869.778 843.743,-873.447"/>
<polygon fill="black" stroke="black" points="709.748,-494.829 706.029,-484.908 702.75,-494.983 709.748,-494.829"/>
<polygon fill="black" stroke="black" points="842.774,-876.812 853.365,-876.53 844.91,-870.146 842.774,-876.812"/>
<text text-anchor="middle" x="783.891" y="-854.8" font-family="Times New Roman,serif" font-size="14.00" fill="#000000">JID</text>
</g>
<!-- XB1 -->
<g id="node23" class="node"><title>XB1</title>
<ellipse fill="white" stroke="black" cx="908.235" cy="-414" rx="40.0939" ry="18"/>
<text text-anchor="start" x="885.235" y="-411.3" font-family="Times New Roman,serif" font-size="14.00" fill="#000000">Broker</text>
<text text-anchor="start" x="924.235" y="-411.3" font-family="Times New Roman,serif" baseline-shift="sub" font-size="14.00" fill="#000000">1</text>
</g>
<!-- XMPP&#45;&gt;XB1 -->
<g id="edge33" class="edge"><title>XMPP&#45;&gt;XB1</title>
<path fill="none" stroke="black" d="M752.311,-447.874C785.11,-440.703 828.901,-431.128 861.557,-423.988"/>
<polygon fill="black" stroke="black" points="751.464,-444.477 742.442,-450.032 752.959,-451.315 751.464,-444.477"/>
<polygon fill="black" stroke="black" points="862.718,-427.316 871.74,-421.761 861.223,-420.478 862.718,-427.316"/>
<text text-anchor="middle" x="783.891" y="-448.8" font-family="Times New Roman,serif" font-size="14.00" fill="#000000">Domain</text>
</g>
<!-- XB2 -->
<g id="node24" class="node"><title>XB2</title>
<text text-anchor="middle" x="908.235" y="-1001.3" font-family="Times New Roman,serif" font-size="14.00" fill="#000000">...</text>
</g>
<!-- XMPP&#45;&gt;XB2 -->
<!-- XB3 -->
<g id="node25" class="node"><title>XB3</title>
<ellipse fill="white" stroke="black" cx="908.235" cy="-1154" rx="40.8928" ry="18"/>
<text text-anchor="start" x="884.735" y="-1151.3" font-family="Times New Roman,serif" font-size="14.00" fill="#000000">Broker</text>
<text text-anchor="start" x="923.735" y="-1151.3" font-family="Times New Roman,serif" baseline-shift="sub" font-size="14.00" fill="#000000">B</text>
</g>
<!-- XMPP&#45;&gt;XB3 -->
<g id="edge41" class="edge"><title>XMPP&#45;&gt;XB3</title>
<path fill="none" stroke="black" d="M707.62,-494.88C712.794,-605.778 730.456,-934.846 761.891,-1037 776.048,-1083 775.594,-1102.84 813.891,-1132 826.269,-1141.42 842.046,-1146.9 857.093,-1150.05"/>
<polygon fill="black" stroke="black" points="711.114,-494.673 707.158,-484.844 704.121,-494.994 711.114,-494.673"/>
<polygon fill="black" stroke="black" points="856.882,-1153.57 867.342,-1151.89 858.114,-1146.68 856.882,-1153.57"/>
<text text-anchor="middle" x="783.891" y="-1128.8" font-family="Times New Roman,serif" font-size="14.00" fill="#000000">Domain</text>
</g>
<!-- MD11 -->
<g id="node5" class="node"><title>MD11</title>
<ellipse fill="white" stroke="black" cx="112.196" cy="-194" rx="42.4939" ry="18"/>
<text text-anchor="start" x="87.6961" y="-191.3" font-family="Times New Roman,serif" font-size="14.00" fill="#000000">Thing</text>
<text text-anchor="start" x="120.696" y="-191.3" font-family="Times New Roman,serif" baseline-shift="sub" font-size="14.00" fill="#000000">1,1</text>
</g>
<!-- MD11&#45;&gt;Modbus1 -->
<g id="edge3" class="edge"><title>MD11&#45;&gt;Modbus1</title>
<path fill="none" stroke="black" d="M161.919,-185.784C178.856,-182.927 198.013,-179.697 215.605,-176.73"/>
<polygon fill="black" stroke="black" points="161.232,-182.35 151.954,-187.464 162.397,-189.252 161.232,-182.35"/>
<polygon fill="black" stroke="black" points="216.475,-180.133 225.754,-175.019 215.311,-173.23 216.475,-180.133"/>
<text text-anchor="middle" x="189.892" y="-186.8" font-family="Times New Roman,serif" font-size="14.00" fill="#000000">Serial</text>
</g>
<!-- MD12 -->
<g id="node6" class="node"><title>MD12</title>
<text text-anchor="middle" x="112.196" y="-136.3" font-family="Times New Roman,serif" font-size="14.00" fill="#000000">...</text>
</g>
<!-- MD12&#45;&gt;Modbus1 -->
<!-- MD13 -->
<g id="node7" class="node"><title>MD13</title>
<ellipse fill="white" stroke="black" cx="112.196" cy="-86" rx="44.393" ry="18"/>
<text text-anchor="start" x="86.1961" y="-83.3" font-family="Times New Roman,serif" font-size="14.00" fill="#000000">Thing</text>
<text text-anchor="start" x="119.196" y="-83.3" font-family="Times New Roman,serif" baseline-shift="sub" font-size="14.00" fill="#000000">1,N</text>
</g>
<!-- MD13&#45;&gt;Modbus1 -->
<g id="edge5" class="edge"><title>MD13&#45;&gt;Modbus1</title>
<path fill="none" stroke="black" d="M149.646,-104.441C173.052,-116.282 203.614,-131.743 228.498,-144.332"/>
<polygon fill="black" stroke="black" points="151.223,-101.316 140.72,-99.9244 148.063,-107.562 151.223,-101.316"/>
<polygon fill="black" stroke="black" points="227.227,-147.612 237.73,-149.003 230.387,-141.366 227.227,-147.612"/>
<text text-anchor="middle" x="189.892" y="-135.8" font-family="Times New Roman,serif" font-size="14.00" fill="#000000">Serial</text>
</g>
<!-- MD31 -->
<g id="node8" class="node"><title>MD31</title>
<ellipse fill="white" stroke="black" cx="112.196" cy="-512" rx="42.4939" ry="18"/>
<text text-anchor="start" x="87.6961" y="-509.3" font-family="Times New Roman,serif" font-size="14.00" fill="#000000">Thing</text>
<text text-anchor="start" x="120.696" y="-509.3" font-family="Times New Roman,serif" baseline-shift="sub" font-size="14.00" fill="#000000">S,1</text>
</g>
<!-- MD31&#45;&gt;Modbus3 -->
<g id="edge12" class="edge"><title>MD31&#45;&gt;Modbus3</title>
<path fill="none" stroke="black" d="M155.689,-497.668C176.089,-490.788 200.696,-482.489 222.119,-475.263"/>
<polygon fill="black" stroke="black" points="154.34,-494.43 145.983,-500.942 156.577,-501.063 154.34,-494.43"/>
<polygon fill="black" stroke="black" points="223.355,-478.54 231.712,-472.028 221.117,-471.907 223.355,-478.54"/>
<text text-anchor="middle" x="189.892" y="-493.8" font-family="Times New Roman,serif" font-size="14.00" fill="#000000">Serial</text>
</g>
<!-- MD32 -->
<g id="node9" class="node"><title>MD32</title>
<text text-anchor="middle" x="112.196" y="-454.3" font-family="Times New Roman,serif" font-size="14.00" fill="#000000">...</text>
</g>
<!-- MD32&#45;&gt;Modbus3 -->
<!-- MD33 -->
<g id="node10" class="node"><title>MD33</title>
<ellipse fill="white" stroke="black" cx="112.196" cy="-404" rx="44.393" ry="18"/>
<text text-anchor="start" x="86.1961" y="-401.3" font-family="Times New Roman,serif" font-size="14.00" fill="#000000">Thing</text>
<text text-anchor="start" x="119.196" y="-401.3" font-family="Times New Roman,serif" baseline-shift="sub" font-size="14.00" fill="#000000">S,N</text>
</g>
<!-- MD33&#45;&gt;Modbus3 -->
<g id="edge14" class="edge"><title>MD33&#45;&gt;Modbus3</title>
<path fill="none" stroke="black" d="M156.4,-418.572C176.634,-425.396 200.884,-433.575 222.039,-440.71"/>
<polygon fill="black" stroke="black" points="157.354,-415.2 146.76,-415.32 155.117,-421.833 157.354,-415.2"/>
<polygon fill="black" stroke="black" points="220.922,-444.027 231.516,-443.906 223.159,-437.394 220.922,-444.027"/>
<text text-anchor="middle" x="189.892" y="-438.8" font-family="Times New Roman,serif" font-size="14.00" fill="#000000">Serial</text>
</g>
<!-- CD11 -->
<g id="node17" class="node"><title>CD11</title>
<ellipse fill="white" stroke="black" cx="1113.38" cy="-616" rx="42.4939" ry="18"/>
<text text-anchor="start" x="1088.88" y="-613.3" font-family="Times New Roman,serif" font-size="14.00" fill="#000000">Thing</text>
<text text-anchor="start" x="1121.88" y="-613.3" font-family="Times New Roman,serif" baseline-shift="sub" font-size="14.00" fill="#000000">1,1</text>
</g>
<!-- XC1&#45;&gt;CD11 -->
<g id="edge27" class="edge"><title>XC1&#45;&gt;CD11</title>
<path fill="none" stroke="black" d="M963.196,-760.13C966.717,-757.489 969.914,-754.464 972.58,-751 1006.55,-706.871 950.152,-665.299 990.58,-627 1009.95,-608.649 1039.66,-605.665 1064.88,-607.383"/>
<polygon fill="black" stroke="black" points="961.079,-757.327 954.487,-765.621 964.813,-763.248 961.079,-757.327"/>
<polygon fill="black" stroke="black" points="1064.73,-610.884 1075.02,-608.333 1065.39,-603.915 1064.73,-610.884"/>
<text text-anchor="middle" x="1019.58" y="-660.8" font-family="Times New Roman,serif" font-size="14.00" fill="#000000">Node ID</text>
<text text-anchor="middle" x="1019.58" y="-645.8" font-family="Times New Roman,serif" font-size="14.00" fill="#000000">Source ID</text>
<text text-anchor="middle" x="1019.58" y="-630.8" font-family="Times New Roman,serif" font-size="14.00" fill="#000000">Partition</text>
</g>
<!-- CD12 -->
<g id="node18" class="node"><title>CD12</title>
<text text-anchor="middle" x="1113.38" y="-666.3" font-family="Times New Roman,serif" font-size="14.00" fill="#000000">...</text>
</g>
<!-- XC1&#45;&gt;CD12 -->
<!-- CD13 -->
<g id="node19" class="node"><title>CD13</title>
<ellipse fill="white" stroke="black" cx="1113.38" cy="-724" rx="46.2923" ry="18"/>
<text text-anchor="start" x="1085.88" y="-721.3" font-family="Times New Roman,serif" font-size="14.00" fill="#000000">Thing</text>
<text text-anchor="start" x="1118.88" y="-721.3" font-family="Times New Roman,serif" baseline-shift="sub" font-size="14.00" fill="#000000">1,N₁</text>
</g>
<!-- XC1&#45;&gt;CD13 -->
<g id="edge29" class="edge"><title>XC1&#45;&gt;CD13</title>
<path fill="none" stroke="black" d="M960.601,-759.869C964.9,-757.26 968.974,-754.315 972.58,-751 985.167,-739.428 975.932,-725.819 990.58,-717 1013.7,-703.077 1043.99,-704.751 1068.57,-709.944"/>
<polygon fill="black" stroke="black" points="958.672,-756.933 951.535,-764.764 961.997,-763.093 958.672,-756.933"/>
<polygon fill="black" stroke="black" points="1067.84,-713.367 1078.38,-712.259 1069.45,-706.554 1067.84,-713.367"/>
<text text-anchor="middle" x="1019.58" y="-750.8" font-family="Times New Roman,serif" font-size="14.00" fill="#000000">Node ID</text>
<text text-anchor="middle" x="1019.58" y="-735.8" font-family="Times New Roman,serif" font-size="14.00" fill="#000000">Source ID</text>
<text text-anchor="middle" x="1019.58" y="-720.8" font-family="Times New Roman,serif" font-size="14.00" fill="#000000">Partition</text>
</g>
<!-- CDC1 -->
<g id="node20" class="node"><title>CDC1</title>
<ellipse fill="white" stroke="black" cx="1113.38" cy="-778" rx="43.5923" ry="18"/>
<text text-anchor="start" x="1087.88" y="-775.3" font-family="Times New Roman,serif" font-size="14.00" fill="#000000">Thing</text>
<text text-anchor="start" x="1120.88" y="-775.3" font-family="Times New Roman,serif" baseline-shift="sub" font-size="14.00" fill="#000000">C,1</text>
</g>
<!-- XC3&#45;&gt;CDC1 -->
<g id="edge30" class="edge"><title>XC3&#45;&gt;CDC1</title>
<path fill="none" stroke="black" d="M962.137,-867.975C965.97,-865.362 969.523,-862.386 972.58,-859 990.667,-838.967 970.436,-818.964 990.58,-801 1009.26,-784.344 1036.1,-778.075 1059.83,-776.192"/>
<polygon fill="black" stroke="black" points="960.22,-865.043 953.382,-873.136 963.774,-871.073 960.22,-865.043"/>
<polygon fill="black" stroke="black" points="1060.34,-779.67 1070.13,-775.625 1059.95,-772.68 1060.34,-779.67"/>
<text text-anchor="middle" x="1019.58" y="-834.8" font-family="Times New Roman,serif" font-size="14.00" fill="#000000">Node ID</text>
<text text-anchor="middle" x="1019.58" y="-819.8" font-family="Times New Roman,serif" font-size="14.00" fill="#000000">Source ID</text>
<text text-anchor="middle" x="1019.58" y="-804.8" font-family="Times New Roman,serif" font-size="14.00" fill="#000000">Partition</text>
</g>
<!-- CDC2 -->
<g id="node21" class="node"><title>CDC2</title>
<text text-anchor="middle" x="1113.38" y="-828.3" font-family="Times New Roman,serif" font-size="14.00" fill="#000000">...</text>
</g>
<!-- XC3&#45;&gt;CDC2 -->
<!-- CDC3 -->
<g id="node22" class="node"><title>CDC3</title>
<ellipse fill="white" stroke="black" cx="1113.38" cy="-886" rx="46.5926" ry="18"/>
<text text-anchor="start" x="1085.38" y="-883.3" font-family="Times New Roman,serif" font-size="14.00" fill="#000000">Thing</text>
<text text-anchor="start" x="1118.38" y="-883.3" font-family="Times New Roman,serif" baseline-shift="sub" font-size="14.00" fill="#000000">C,Nₜ</text>
</g>
<!-- XC3&#45;&gt;CDC3 -->
<g id="edge32" class="edge"><title>XC3&#45;&gt;CDC3</title>
<path fill="none" stroke="black" d="M982.818,-886C1007.06,-886 1033.61,-886 1056.33,-886"/>
<polygon fill="black" stroke="black" points="982.675,-882.5 972.675,-886 982.675,-889.5 982.675,-882.5"/>
<polygon fill="black" stroke="black" points="1056.48,-889.5 1066.48,-886 1056.48,-882.5 1056.48,-889.5"/>
<text text-anchor="middle" x="1019.58" y="-919.8" font-family="Times New Roman,serif" font-size="14.00" fill="#000000">Node ID</text>
<text text-anchor="middle" x="1019.58" y="-904.8" font-family="Times New Roman,serif" font-size="14.00" fill="#000000">Source ID</text>
<text text-anchor="middle" x="1019.58" y="-889.8" font-family="Times New Roman,serif" font-size="14.00" fill="#000000">Partition</text>
</g>
<!-- N1 -->
<g id="node29" class="node"><title>N1</title>
<ellipse fill="white" stroke="black" cx="1113.38" cy="-318" rx="7" ry="7"/>
</g>
<!-- XB1&#45;&gt;N1 -->
<g id="edge34" class="edge"><title>XB1&#45;&gt;N1</title>
<path fill="none" stroke="black" d="M932.69,-399.493C948.732,-389.809 970.625,-377.056 990.58,-367 1023.46,-350.428 1032.29,-347.415 1066.58,-334 1076.51,-330.117 1087.81,-326.163 1096.71,-323.157"/>
<polygon fill="black" stroke="black" points="1098.01,-326.41 1106.4,-319.933 1095.8,-319.768 1098.01,-326.41"/>
</g>
<!-- N2 -->
<g id="node30" class="node"><title>N2</title>
<ellipse fill="white" stroke="black" cx="1113.38" cy="-350" rx="7" ry="7"/>
</g>
<!-- XB1&#45;&gt;N2 -->
<g id="edge35" class="edge"><title>XB1&#45;&gt;N2</title>
<path fill="none" stroke="black" d="M941.873,-403.717C986.217,-389.747 1063.75,-365.319 1096.77,-354.916"/>
<polygon fill="black" stroke="black" points="1097.98,-358.205 1106.47,-351.862 1095.88,-351.529 1097.98,-358.205"/>
</g>
<!-- N3 -->
<g id="node31" class="node"><title>N3</title>
<ellipse fill="white" stroke="black" cx="1113.38" cy="-382" rx="7" ry="7"/>
</g>
<!-- XB1&#45;&gt;N3 -->
<g id="edge36" class="edge"><title>XB1&#45;&gt;N3</title>
<path fill="none" stroke="black" d="M946.494,-408.131C991.176,-401.092 1064.06,-389.61 1096.24,-384.542"/>
<polygon fill="black" stroke="black" points="1096.79,-387.998 1106.13,-382.985 1095.7,-381.083 1096.79,-387.998"/>
</g>
<!-- N4 -->
<g id="node32" class="node"><title>N4</title>
<ellipse fill="white" stroke="black" cx="1113.38" cy="-414" rx="7" ry="7"/>
</g>
<!-- XB1&#45;&gt;N4 -->
<g id="edge37" class="edge"><title>XB1&#45;&gt;N4</title>
<path fill="none" stroke="black" d="M948.885,-414C993.729,-414 1064.61,-414 1096.23,-414"/>
<polygon fill="black" stroke="black" points="1096.29,-417.5 1106.29,-414 1096.29,-410.5 1096.29,-417.5"/>
</g>
<!-- N5 -->
<g id="node33" class="node"><title>N5</title>
<ellipse fill="white" stroke="black" cx="1113.38" cy="-446" rx="7" ry="7"/>
</g>
<!-- XB1&#45;&gt;N5 -->
<g id="edge38" class="edge"><title>XB1&#45;&gt;N5</title>
<path fill="none" stroke="black" d="M946.494,-419.869C991.176,-426.908 1064.06,-438.39 1096.24,-443.458"/>
<polygon fill="black" stroke="black" points="1095.7,-446.917 1106.13,-445.015 1096.79,-440.002 1095.7,-446.917"/>
</g>
<!-- N6 -->
<g id="node34" class="node"><title>N6</title>
<ellipse fill="white" stroke="black" cx="1113.38" cy="-478" rx="7" ry="7"/>
</g>
<!-- XB1&#45;&gt;N6 -->
<g id="edge39" class="edge"><title>XB1&#45;&gt;N6</title>
<path fill="none" stroke="black" d="M941.873,-424.283C986.217,-438.253 1063.75,-462.681 1096.77,-473.084"/>
<polygon fill="black" stroke="black" points="1095.88,-476.471 1106.47,-476.138 1097.98,-469.795 1095.88,-476.471"/>
</g>
<!-- M1 -->
<g id="node35" class="node"><title>M1</title>
<ellipse fill="white" stroke="black" cx="1113.38" cy="-1090" rx="7" ry="7"/>
</g>
<!-- XB3&#45;&gt;M1 -->
<g id="edge42" class="edge"><title>XB3&#45;&gt;M1</title>
<path fill="none" stroke="black" d="M941.677,-1143.57C956.569,-1138.8 974.463,-1133.09 990.58,-1128 1028.53,-1116.02 1073.19,-1102.14 1096.46,-1094.93"/>
<polygon fill="black" stroke="black" points="1097.77,-1098.19 1106.29,-1091.88 1095.7,-1091.5 1097.77,-1098.19"/>
</g>
<!-- M2 -->
<g id="node36" class="node"><title>M2</title>
<ellipse fill="white" stroke="black" cx="1113.38" cy="-1122" rx="7" ry="7"/>
</g>
<!-- XB3&#45;&gt;M2 -->
<g id="edge43" class="edge"><title>XB3&#45;&gt;M2</title>
<path fill="none" stroke="black" d="M946.968,-1148.06C991.531,-1141.04 1063.66,-1129.67 1095.9,-1124.6"/>
<polygon fill="black" stroke="black" points="1096.82,-1127.99 1106.16,-1122.98 1095.74,-1121.08 1096.82,-1127.99"/>
</g>
<!-- M3 -->
<g id="node37" class="node"><title>M3</title>
<ellipse fill="white" stroke="black" cx="1113.38" cy="-1154" rx="7" ry="7"/>
</g>
<!-- XB3&#45;&gt;M3 -->
<g id="edge44" class="edge"><title>XB3&#45;&gt;M3</title>
<path fill="none" stroke="black" d="M949.369,-1154C994.277,-1154 1064.85,-1154 1096.31,-1154"/>
<polygon fill="black" stroke="black" points="1096.32,-1157.5 1106.32,-1154 1096.32,-1150.5 1096.32,-1157.5"/>
</g>
<!-- M4 -->
<g id="node38" class="node"><title>M4</title>
<ellipse fill="white" stroke="black" cx="1113.38" cy="-1186" rx="7" ry="7"/>
</g>
<!-- XB3&#45;&gt;M4 -->
<g id="edge45" class="edge"><title>XB3&#45;&gt;M4</title>
<path fill="none" stroke="black" d="M946.968,-1159.94C991.531,-1166.96 1063.66,-1178.33 1095.9,-1183.4"/>
<polygon fill="black" stroke="black" points="1095.74,-1186.92 1106.16,-1185.02 1096.82,-1180.01 1095.74,-1186.92"/>
</g>
<!-- M5 -->
<g id="node39" class="node"><title>M5</title>
<ellipse fill="white" stroke="black" cx="1113.38" cy="-1218" rx="7" ry="7"/>
</g>
<!-- XB3&#45;&gt;M5 -->
<g id="edge46" class="edge"><title>XB3&#45;&gt;M5</title>
<path fill="none" stroke="black" d="M941.873,-1164.28C986.217,-1178.25 1063.75,-1202.68 1096.77,-1213.08"/>
<polygon fill="black" stroke="black" points="1095.88,-1216.47 1106.47,-1216.14 1097.98,-1209.79 1095.88,-1216.47"/>
</g>
<!-- M6 -->
<g id="node40" class="node"><title>M6</title>
<ellipse fill="white" stroke="black" cx="1113.38" cy="-1250" rx="7" ry="7"/>
</g>
<!-- XB3&#45;&gt;M6 -->
<g id="edge47" class="edge"><title>XB3&#45;&gt;M6</title>
<path fill="none" stroke="black" d="M934.353,-1168.1C965,-1184.99 1018.66,-1213.56 1066.58,-1234 1076.38,-1238.18 1087.69,-1242.14 1096.61,-1245.07"/>
<polygon fill="black" stroke="black" points="1095.76,-1248.48 1106.35,-1248.18 1097.89,-1241.81 1095.76,-1248.48"/>
</g>
<!-- invis1 -->
<!-- invis2 -->
<!-- invis1&#45;&gt;invis2 -->
<!-- invis1&#45;&gt;invis2 -->
<!-- invis3 -->
<!-- invis2&#45;&gt;invis3 -->
<!-- invis2&#45;&gt;invis3 -->
<!-- S1 -->
<g id="node41" class="node"><title>S1</title>
<ellipse fill="white" stroke="black" cx="112.196" cy="-912" rx="7" ry="7"/>
</g>
<!-- S1&#45;&gt;Modbus2 -->
<g id="edge6" class="edge"><title>S1&#45;&gt;Modbus2</title>
<path fill="none" stroke="black" d="M128.767,-907.465C147.963,-901.396 181.032,-889.347 205.392,-872 224.807,-858.174 242.85,-838.016 255.451,-822.229"/>
<polygon fill="black" stroke="black" points="127.586,-904.166 119.023,-910.404 129.607,-910.868 127.586,-904.166"/>
<polygon fill="black" stroke="black" points="258.493,-824.02 261.866,-813.977 252.966,-819.724 258.493,-824.02"/>
<text text-anchor="middle" x="189.892" y="-893.8" font-family="Times New Roman,serif" font-size="14.00" fill="#000000">Serial</text>
</g>
<!-- S2 -->
<g id="node42" class="node"><title>S2</title>
<ellipse fill="white" stroke="black" cx="112.196" cy="-874" rx="7" ry="7"/>
</g>
<!-- S2&#45;&gt;Modbus2 -->
<g id="edge7" class="edge"><title>S2&#45;&gt;Modbus2</title>
<path fill="none" stroke="black" d="M128.944,-869.259C147.621,-863.396 179.486,-852.629 205.392,-840 219.43,-833.157 234.265,-824.203 246.476,-816.321"/>
<polygon fill="black" stroke="black" points="127.726,-865.972 119.19,-872.249 129.777,-872.665 127.726,-865.972"/>
<polygon fill="black" stroke="black" points="248.418,-819.233 254.855,-810.817 244.575,-813.382 248.418,-819.233"/>
<text text-anchor="middle" x="189.892" y="-856.8" font-family="Times New Roman,serif" font-size="14.00" fill="#000000">Serial</text>
</g>
<!-- S3 -->
<g id="node43" class="node"><title>S3</title>
<ellipse fill="white" stroke="black" cx="112.196" cy="-836" rx="7" ry="7"/>
</g>
<!-- S3&#45;&gt;Modbus2 -->
<g id="edge8" class="edge"><title>S3&#45;&gt;Modbus2</title>
<path fill="none" stroke="black" d="M129.313,-832.175C154.752,-826.137 204.795,-814.26 238.652,-806.224"/>
<polygon fill="black" stroke="black" points="128.198,-828.842 119.277,-834.557 129.815,-835.653 128.198,-828.842"/>
<polygon fill="black" stroke="black" points="239.673,-809.579 248.594,-803.865 238.056,-802.769 239.673,-809.579"/>
<text text-anchor="middle" x="189.892" y="-824.8" font-family="Times New Roman,serif" font-size="14.00" fill="#000000">Serial</text>
</g>
<!-- S4 -->
<g id="node44" class="node"><title>S4</title>
<ellipse fill="white" stroke="black" cx="112.196" cy="-798" rx="7" ry="7"/>
</g>
<!-- S4&#45;&gt;Modbus2 -->
<g id="edge9" class="edge"><title>S4&#45;&gt;Modbus2</title>
<path fill="none" stroke="black" d="M129.521,-798C154.525,-798 202.946,-798 236.652,-798"/>
<polygon fill="black" stroke="black" points="129.277,-794.5 119.277,-798 129.277,-801.5 129.277,-794.5"/>
<polygon fill="black" stroke="black" points="237.031,-801.5 247.031,-798 237.031,-794.5 237.031,-801.5"/>
<text text-anchor="middle" x="189.892" y="-801.8" font-family="Times New Roman,serif" font-size="14.00" fill="#000000">Serial</text>
</g>
<!-- S5 -->
<g id="node45" class="node"><title>S5</title>
<ellipse fill="white" stroke="black" cx="112.196" cy="-760" rx="7" ry="7"/>
</g>
<!-- S5&#45;&gt;Modbus2 -->
<g id="edge10" class="edge"><title>S5&#45;&gt;Modbus2</title>
<path fill="none" stroke="black" d="M129.43,-762.991C147.906,-766.478 178.95,-772.585 205.392,-779 216.482,-781.691 228.5,-784.941 239.299,-787.986"/>
<polygon fill="black" stroke="black" points="129.962,-759.53 119.49,-761.141 128.68,-766.412 129.962,-759.53"/>
<polygon fill="black" stroke="black" points="238.633,-791.436 249.209,-790.819 240.556,-784.705 238.633,-791.436"/>
<text text-anchor="middle" x="189.892" y="-782.8" font-family="Times New Roman,serif" font-size="14.00" fill="#000000">Serial</text>
</g>
<!-- S6 -->
<g id="node46" class="node"><title>S6</title>
<ellipse fill="white" stroke="black" cx="112.196" cy="-722" rx="7" ry="7"/>
</g>
<!-- S6&#45;&gt;Modbus2 -->
<g id="edge11" class="edge"><title>S6&#45;&gt;Modbus2</title>
<path fill="none" stroke="black" d="M129.01,-726.226C147.75,-731.518 179.675,-741.434 205.392,-754 219.815,-761.047 234.893,-770.569 247.167,-778.953"/>
<polygon fill="black" stroke="black" points="129.788,-722.81 119.219,-723.546 127.94,-729.562 129.788,-722.81"/>
<polygon fill="black" stroke="black" points="245.355,-781.956 255.56,-784.805 249.359,-776.214 245.355,-781.956"/>
<text text-anchor="middle" x="189.892" y="-757.8" font-family="Times New Roman,serif" font-size="14.00" fill="#000000">Serial</text>
</g>
<!-- Bridge&#45;&gt;XMPP -->
<g id="edge18" class="edge"><title>Bridge&#45;&gt;XMPP</title>
<path fill="none" stroke="black" d="M540.491,-458C574.221,-458 620.801,-458 655.619,-458"/>
<polygon fill="black" stroke="black" points="540.436,-454.5 530.436,-458 540.436,-461.5 540.436,-454.5"/>
<polygon fill="black" stroke="black" points="656.02,-461.5 666.02,-458 656.02,-454.5 656.02,-461.5"/>
<text text-anchor="start" x="552.109" y="-503.8" font-family="Times New Roman,serif" font-weight="bold" font-size="14.00" fill="#000000">XMPP</text>
<text text-anchor="start" x="549.109" y="-489.8" font-family="Times New Roman,serif" font-size="14.00" fill="#000000">message</text>
<text text-anchor="start" x="567.609" y="-475.8" font-family="Times New Roman,serif" font-size="14.00" fill="#000000">iq</text>
<text text-anchor="start" x="548.109" y="-461.8" font-family="Times New Roman,serif" font-size="14.00" fill="#000000">presence</text>
</g>
</g>
</svg>
